<svg version="1.0" xmlns="http://www.w3.org/2000/svg"
 width="810.000000pt" height="142.000000pt" viewBox="0 0 810.000000 142.000000"
 preserveAspectRatio="xMidYMid meet">

<g transform="translate(0.000000,142.000000) scale(0.100000,-0.100000)"
fill="none" stroke="#000">
<path d="M5640 1384 c-358 -43 -672 -222 -596 -339 23 -36 32 -31 28 15 -5 48
24 100 71 129 68 41 175 90 254 115 159 49 407 70 429 35 3 -6 -84 -101 -193
-212 -267 -272 -353 -377 -353 -434 0 -50 26 -33 217 143 153 141 337 273 476
344 100 50 135 56 99 16 -215 -238 -386 -475 -367 -506 16 -25 27 -18 222 141
196 160 311 229 228 137 -133 -148 -197 -308 -149 -376 10 -15 25 -22 47 -21
30 0 30 1 10 11 -82 40 -35 198 105 350 81 88 88 114 31 112 -43 -1 -172 -85
-316 -206 -148 -125 -139 -119 -120 -82 26 50 127 182 237 309 129 150 136
161 120 180 -19 23 -50 18 -136 -24 -147 -71 -366 -227 -509 -360 -44 -42 -98
-91 -119 -111 l-39 -35 19 34 c32 56 139 176 336 378 188 191 209 221 171 242
-21 11 -154 20 -203 15z"/>
<path d="M1596 1289 c-82 -52 -190 -132 -319 -236 l-79 -63 -91 0 c-303 0
-571 -66 -666 -164 -62 -64 -50 -151 27 -190 130 -65 342 11 627 226 l120 91
70 -12 c38 -6 74 -16 78 -20 5 -5 -3 -31 -17 -59 -54 -107 -56 -205 -4 -233
19 -10 20 -9 13 7 -4 11 -10 42 -12 69 -5 54 22 144 56 186 l18 23 58 -22 c69
-27 66 -27 56 0 -5 14 -24 27 -54 37 l-46 16 85 114 c47 62 107 141 135 175
52 64 57 77 36 94 -10 9 -32 -1 -91 -39z m44 -13 c0 -2 -39 -53 -87 -113 -47
-59 -102 -132 -121 -160 -29 -45 -38 -52 -58 -47 -13 3 -46 11 -74 18 l-50 11
63 50 c70 57 320 245 324 245 2 0 3 -2 3 -4z m-490 -321 c0 -10 -205 -157
-279 -201 -41 -24 -113 -57 -160 -75 -72 -26 -96 -30 -148 -26 -103 8 -148 52
-120 119 21 49 73 86 170 118 74 25 225 54 332 63 68 6 205 7 205 2z"/>
<path d="M3495 1325 c-191 -35 -400 -155 -541 -309 -88 -95 -156 -231 -162
-320 -4 -55 -1 -66 21 -92 23 -26 31 -29 89 -29 54 0 75 6 148 43 47 24 155
93 240 153 200 143 193 139 176 91 -8 -21 -25 -61 -39 -88 -24 -47 -28 -50
-99 -72 -130 -40 -315 -182 -334 -256 -16 -64 27 -105 88 -84 89 30 208 139
295 269 44 66 46 68 96 74 29 4 61 14 72 22 18 14 14 14 -42 9 l-61 -7 34 78
c37 85 42 121 19 129 -18 7 -33 -2 -192 -118 -286 -209 -437 -266 -473 -177
-49 118 119 376 335 514 189 121 421 181 493 128 33 -24 40 -74 17 -109 -15
-23 -13 -44 4 -44 11 0 41 68 41 95 0 92 -79 128 -225 100z m-142 -676 c-32
-56 -175 -200 -227 -230 -86 -49 -124 -34 -91 36 30 61 155 161 255 202 76 31
85 30 63 -8z"/>
<path d="M2493 1222 c-21 -22 -81 -110 -133 -195 -89 -144 -99 -156 -156 -190
-69 -42 -114 -49 -114 -17 0 13 12 28 31 38 69 38 119 83 119 106 0 54 -60 39
-116 -30 -59 -71 -86 -96 -142 -131 l-52 -32 14 27 c8 15 33 48 56 75 54 61
31 61 -34 -1 -28 -27 -62 -54 -74 -61 -19 -10 -22 -9 -22 6 0 28 50 91 98 123
50 33 72 38 72 15 0 -19 14 -19 30 1 11 12 10 18 -3 31 -27 27 -89 2 -155 -63
-62 -60 -149 -120 -159 -110 -4 3 15 38 41 76 45 66 54 100 25 100 -14 0 -68
-39 -128 -95 l-44 -40 37 72 c19 40 32 75 26 78 -11 7 -160 -137 -160 -155 0
-7 21 4 46 25 l46 38 -36 -71 c-20 -40 -36 -74 -36 -77 0 -17 29 3 98 68 138
129 141 130 93 60 -71 -105 -54 -154 33 -94 l45 31 3 -27 c3 -24 7 -28 31 -26
43 3 30 -15 -57 -80 -43 -32 -86 -73 -97 -90 -21 -34 -22 -78 -2 -84 18 -6
113 87 147 144 22 36 51 63 109 102 43 29 80 51 80 49 19 -37 27 -43 66 -42
30 1 55 10 86 32 l44 31 -6 -29 c-8 -44 20 -50 79 -17 46 26 48 26 48 7 0 -30
25 -35 65 -11 34 20 35 20 35 1 0 -11 6 -20 13 -20 19 0 137 77 137 90 0 16
-10 12 -62 -21 -27 -17 -51 -29 -54 -27 -2 3 11 28 30 57 19 28 30 51 24 51
-6 0 -34 -22 -62 -48 -28 -27 -62 -54 -74 -61 -19 -10 -22 -9 -22 6 0 28 50
91 98 123 50 33 72 38 72 15 0 -19 14 -19 30 1 11 12 10 18 -3 31 -28 28 -90
1 -160 -68 -89 -89 -167 -139 -167 -107 0 21 69 136 158 265 49 70 95 139 102
151 20 40 2 37 -37 -6z m-283 -261 c0 -12 -58 -61 -73 -61 -6 0 4 16 23 35 34
35 50 43 50 26z m-386 -303 c-16 -29 -76 -98 -85 -98 -20 0 -7 26 36 67 46 43
62 54 49 31z"/>
<path d="M3935 1226 c-19 -20 -80 -110 -135 -199 -95 -153 -149 -215 -187
-217 -19 0 3 50 52 122 26 37 40 65 33 67 -16 5 -63 -54 -99 -126 -47 -93 -28
-128 43 -79 l37 25 3 -22 c2 -12 11 -23 21 -25 21 -4 118 52 186 106 l43 35
-36 -70 c-20 -38 -36 -72 -36 -76 0 -19 28 0 103 71 130 122 136 126 91 57
-21 -33 -46 -71 -56 -84 -17 -22 -16 -41 1 -41 5 0 42 30 82 67 137 124 135
123 74 33 -60 -89 -33 -127 50 -71 l45 30 0 -25 c0 -38 27 -41 82 -11 39 22
52 25 67 15 21 -13 63 8 142 73 34 28 49 35 57 27 8 -8 2 -21 -24 -50 -63 -70
-24 -116 52 -64 l38 25 10 -22 c22 -43 103 -26 180 37 45 38 16 38 -44 0 -63
-40 -110 -45 -110 -14 0 13 12 28 31 38 69 38 119 83 119 106 0 28 -21 39 -53
27 -24 -10 -71 -58 -105 -108 -26 -37 -115 -99 -120 -83 -2 6 22 40 53 76 58
65 66 86 25 64 -12 -6 -28 -9 -36 -6 -11 4 -11 10 4 35 20 36 7 55 -17 23 -56
-79 -162 -169 -183 -156 -5 3 7 27 25 52 44 60 52 85 32 102 -27 22 -90 -5
-153 -65 -65 -64 -162 -131 -162 -113 0 7 21 44 45 82 25 39 44 75 42 80 -8
24 -38 15 -79 -21 -93 -82 -94 -83 -63 -36 28 43 28 73 0 73 -8 0 -49 -30 -91
-67 -42 -36 -75 -62 -73 -57 2 5 19 37 36 71 44 83 26 92 -41 21 -48 -52 -193
-158 -216 -158 -5 0 -10 5 -10 12 0 21 69 136 158 265 97 139 117 172 108 180
-3 4 -21 -11 -41 -31z m515 -274 c0 -28 -20 -44 -38 -30 -18 16 -42 -14 -42
-51 0 -18 -10 -33 -33 -48 -74 -51 -82 -14 -14 63 63 72 127 105 127 66z m370
9 c0 -12 -58 -61 -73 -61 -6 0 4 16 23 35 34 35 50 43 50 26z"/>
<path d="M3730 1106 c-27 -33 18 -72 48 -42 13 13 14 20 6 34 -15 23 -38 26
-54 8z"/>
<path d="M7190 1106 c-27 -33 18 -72 48 -42 13 13 14 20 6 34 -15 23 -38 26
-54 8z"/>
<path d="M6523 953 c-57 -57 -189 -151 -199 -141 -2 3 11 28 30 57 19 28 30
51 24 51 -6 0 -34 -22 -62 -48 -28 -27 -62 -54 -74 -61 -19 -10 -22 -9 -22 6
0 28 50 91 98 123 50 33 72 38 72 15 0 -19 14 -19 30 1 11 12 10 18 -3 31 -14
14 -22 15 -58 4 -59 -18 -155 -114 -165 -165 -10 -55 7 -67 56 -39 39 21 40
21 40 2 0 -10 6 -19 12 -19 17 0 123 65 176 108 l44 35 -36 -71 c-20 -40 -36
-74 -36 -77 0 -17 29 3 98 68 138 129 141 130 93 60 -46 -67 -57 -115 -29
-121 16 -3 151 79 197 121 21 19 19 13 -13 -50 -20 -40 -36 -75 -36 -78 0 -17
29 3 98 68 138 129 141 130 93 60 -71 -105 -54 -154 33 -94 25 17 47 31 49 31
2 0 2 -11 0 -24 -3 -13 0 -27 6 -30 20 -12 51 4 132 71 l80 65 -35 -71 c-20
-39 -36 -73 -36 -76 0 -17 29 3 98 68 138 129 141 130 93 60 -71 -105 -54
-154 33 -94 l45 31 3 -27 c3 -24 7 -28 31 -26 43 3 30 -15 -57 -80 -43 -32
-86 -73 -97 -90 -21 -34 -22 -78 -2 -84 18 -6 113 87 147 144 22 37 53 64 125
113 55 37 97 73 100 84 3 17 -2 15 -35 -10 -22 -16 -58 -42 -82 -57 l-43 -28
14 28 c8 15 34 49 57 76 54 61 31 61 -34 -1 -28 -27 -62 -54 -74 -61 -19 -10
-22 -9 -22 6 0 28 50 91 98 123 50 33 72 38 72 15 0 -19 14 -19 30 1 11 12 10
18 -3 31 -27 27 -89 2 -155 -63 -62 -60 -149 -120 -159 -110 -4 3 15 38 41 76
45 66 54 100 25 100 -14 0 -68 -39 -128 -95 l-44 -40 37 72 c19 40 32 75 26
78 -5 3 -41 -26 -81 -65 -71 -70 -148 -130 -168 -130 -17 0 7 53 54 122 26 37
40 65 33 67 -12 4 -58 -47 -84 -94 -16 -30 -120 -102 -131 -91 -4 3 15 37 40
75 50 73 55 88 32 97 -16 7 -61 -24 -134 -91 l-44 -40 37 72 c20 41 32 75 26
78 -5 3 -36 -20 -67 -52 -61 -61 -189 -150 -200 -139 -4 3 15 38 41 76 45 66
54 100 25 100 -14 0 -68 -39 -128 -95 l-44 -40 37 72 c20 41 32 75 26 78 -5 3
-36 -20 -67 -52z m911 -295 c-16 -29 -76 -98 -85 -98 -20 0 -7 26 36 67 46 43
62 54 49 31z"/>
</g>
</svg>
